<mxfile host="Electron" modified="2023-09-17T14:43:43.253Z" agent="Mozilla/5.0 (Windows NT 10.0; Win64; x64) AppleWebKit/537.36 (KHTML, like Gecko) draw.io/21.6.8 Chrome/114.0.5735.289 Electron/25.5.0 Safari/537.36" etag="IQ0TeZu2IEDrFq4cMQat" version="21.6.8" type="device" pages="2">
  <diagram id="6YQVF4b3URwh1CnB3FKi" name="Page-2">
    <mxGraphModel dx="1036" dy="975" grid="1" gridSize="10" guides="1" tooltips="1" connect="1" arrows="1" fold="1" page="0" pageScale="1" pageWidth="850" pageHeight="1100" math="0" shadow="0">
      <root>
        <mxCell id="0" />
        <mxCell id="1" parent="0" />
        <mxCell id="KbrP9otijuR78mMI9Qmw-5" style="edgeStyle=orthogonalEdgeStyle;shape=connector;rounded=0;orthogonalLoop=1;jettySize=auto;html=1;entryX=0.5;entryY=1;entryDx=0;entryDy=0;labelBackgroundColor=default;strokeColor=default;fontFamily=Helvetica;fontSize=12;fontColor=default;endArrow=classic;startSize=8;endSize=8;" edge="1" parent="1" source="KbrP9otijuR78mMI9Qmw-1" target="KbrP9otijuR78mMI9Qmw-3">
          <mxGeometry relative="1" as="geometry" />
        </mxCell>
        <mxCell id="KbrP9otijuR78mMI9Qmw-10" value="dispatches action&lt;br&gt;gets state" style="edgeLabel;html=1;align=center;verticalAlign=middle;resizable=0;points=[];fontSize=12;fontFamily=Helvetica;fontColor=default;" vertex="1" connectable="0" parent="KbrP9otijuR78mMI9Qmw-5">
          <mxGeometry x="-0.185" y="3" relative="1" as="geometry">
            <mxPoint as="offset" />
          </mxGeometry>
        </mxCell>
        <mxCell id="KbrP9otijuR78mMI9Qmw-8" style="edgeStyle=orthogonalEdgeStyle;shape=connector;rounded=0;orthogonalLoop=1;jettySize=auto;html=1;entryX=0.5;entryY=1;entryDx=0;entryDy=0;labelBackgroundColor=default;strokeColor=default;fontFamily=Helvetica;fontSize=12;fontColor=default;endArrow=classic;startSize=8;endSize=8;" edge="1" parent="1" source="KbrP9otijuR78mMI9Qmw-1" target="KbrP9otijuR78mMI9Qmw-6">
          <mxGeometry relative="1" as="geometry">
            <Array as="points">
              <mxPoint x="360" y="160" />
            </Array>
          </mxGeometry>
        </mxCell>
        <mxCell id="KbrP9otijuR78mMI9Qmw-11" value="gets cached data&lt;br&gt;(historical data, analytics, ...)" style="edgeLabel;html=1;align=center;verticalAlign=middle;resizable=0;points=[];fontSize=12;fontFamily=Helvetica;fontColor=default;" vertex="1" connectable="0" parent="KbrP9otijuR78mMI9Qmw-8">
          <mxGeometry x="0.5633" relative="1" as="geometry">
            <mxPoint as="offset" />
          </mxGeometry>
        </mxCell>
        <mxCell id="KbrP9otijuR78mMI9Qmw-1" value="«React»&lt;br&gt;&lt;b&gt;UI&lt;/b&gt;" style="html=1;dropTarget=0;whiteSpace=wrap;fontFamily=Helvetica;fontSize=12;fontColor=#333333;fillColor=#f5f5f5;strokeColor=#666666;" vertex="1" parent="1">
          <mxGeometry x="80" y="120" width="160" height="80" as="geometry" />
        </mxCell>
        <mxCell id="KbrP9otijuR78mMI9Qmw-2" value="" style="shape=module;jettyWidth=8;jettyHeight=4;fontFamily=Helvetica;fontSize=12;fontColor=default;" vertex="1" parent="KbrP9otijuR78mMI9Qmw-1">
          <mxGeometry x="1" width="20" height="20" relative="1" as="geometry">
            <mxPoint x="-27" y="7" as="offset" />
          </mxGeometry>
        </mxCell>
        <mxCell id="KbrP9otijuR78mMI9Qmw-3" value="«Redux»&lt;br&gt;&lt;b&gt;StateManagement&lt;/b&gt;" style="html=1;dropTarget=0;whiteSpace=wrap;fontFamily=Helvetica;fontSize=12;fontColor=#333333;fillColor=#f5f5f5;strokeColor=#666666;" vertex="1" parent="1">
          <mxGeometry x="80" y="-40" width="160" height="80" as="geometry" />
        </mxCell>
        <mxCell id="KbrP9otijuR78mMI9Qmw-4" value="" style="shape=module;jettyWidth=8;jettyHeight=4;fontFamily=Helvetica;fontSize=12;fontColor=default;" vertex="1" parent="KbrP9otijuR78mMI9Qmw-3">
          <mxGeometry x="1" width="20" height="20" relative="1" as="geometry">
            <mxPoint x="-27" y="7" as="offset" />
          </mxGeometry>
        </mxCell>
        <mxCell id="KbrP9otijuR78mMI9Qmw-6" value="«IndexedDB»&lt;br&gt;&lt;b&gt;Cache&lt;/b&gt;" style="html=1;dropTarget=0;whiteSpace=wrap;fontFamily=Helvetica;fontSize=12;fontColor=#333333;fillColor=#f5f5f5;strokeColor=#666666;" vertex="1" parent="1">
          <mxGeometry x="280" y="-40" width="160" height="80" as="geometry" />
        </mxCell>
        <mxCell id="KbrP9otijuR78mMI9Qmw-7" value="" style="shape=module;jettyWidth=8;jettyHeight=4;fontFamily=Helvetica;fontSize=12;fontColor=default;" vertex="1" parent="KbrP9otijuR78mMI9Qmw-6">
          <mxGeometry x="1" width="20" height="20" relative="1" as="geometry">
            <mxPoint x="-27" y="7" as="offset" />
          </mxGeometry>
        </mxCell>
      </root>
    </mxGraphModel>
  </diagram>
  <diagram name="Redux" id="JmlfIcONJby1dVA5GE1m">
    <mxGraphModel dx="2280" dy="1621" grid="1" gridSize="10" guides="1" tooltips="1" connect="1" arrows="1" fold="1" page="0" pageScale="1" pageWidth="850" pageHeight="1100" math="0" shadow="0">
      <root>
        <mxCell id="0" />
        <mxCell id="1" parent="0" />
        <mxCell id="Xmvf-_v_oDST-VpxMR6n-11" style="edgeStyle=orthogonalEdgeStyle;shape=connector;rounded=0;orthogonalLoop=1;jettySize=auto;html=1;exitX=1;exitY=0.25;exitDx=0;exitDy=0;entryX=0;entryY=0.25;entryDx=0;entryDy=0;labelBackgroundColor=default;strokeColor=default;fontFamily=Helvetica;fontSize=12;fontColor=default;endArrow=classic;startSize=8;endSize=8;" edge="1" parent="1" source="Xmvf-_v_oDST-VpxMR6n-1" target="Xmvf-_v_oDST-VpxMR6n-3">
          <mxGeometry relative="1" as="geometry" />
        </mxCell>
        <mxCell id="Xmvf-_v_oDST-VpxMR6n-14" value="action" style="edgeLabel;html=1;align=center;verticalAlign=middle;resizable=0;points=[];fontSize=12;fontFamily=Helvetica;fontColor=default;" vertex="1" connectable="0" parent="Xmvf-_v_oDST-VpxMR6n-11">
          <mxGeometry x="-0.0585" y="1" relative="1" as="geometry">
            <mxPoint as="offset" />
          </mxGeometry>
        </mxCell>
        <mxCell id="Xmvf-_v_oDST-VpxMR6n-1" value="«Redux»&lt;br&gt;&lt;b&gt;Store&lt;/b&gt;" style="html=1;dropTarget=0;whiteSpace=wrap;fontSize=16;fillColor=#f5f5f5;fontColor=#333333;strokeColor=#666666;" vertex="1" parent="1">
          <mxGeometry x="-270" y="250" width="200" height="80" as="geometry" />
        </mxCell>
        <mxCell id="Xmvf-_v_oDST-VpxMR6n-2" value="" style="shape=module;jettyWidth=8;jettyHeight=4;fontSize=16;" vertex="1" parent="Xmvf-_v_oDST-VpxMR6n-1">
          <mxGeometry x="1" width="20" height="20" relative="1" as="geometry">
            <mxPoint x="-27" y="7" as="offset" />
          </mxGeometry>
        </mxCell>
        <mxCell id="Xmvf-_v_oDST-VpxMR6n-12" style="edgeStyle=orthogonalEdgeStyle;shape=connector;rounded=0;orthogonalLoop=1;jettySize=auto;html=1;exitX=0;exitY=0.75;exitDx=0;exitDy=0;entryX=1;entryY=0.75;entryDx=0;entryDy=0;labelBackgroundColor=default;strokeColor=default;fontFamily=Helvetica;fontSize=12;fontColor=default;endArrow=classic;startSize=8;endSize=8;" edge="1" parent="1" source="Xmvf-_v_oDST-VpxMR6n-3" target="Xmvf-_v_oDST-VpxMR6n-1">
          <mxGeometry relative="1" as="geometry" />
        </mxCell>
        <mxCell id="Xmvf-_v_oDST-VpxMR6n-13" value="new state" style="edgeLabel;html=1;align=center;verticalAlign=middle;resizable=0;points=[];fontSize=12;fontFamily=Helvetica;fontColor=default;" vertex="1" connectable="0" parent="Xmvf-_v_oDST-VpxMR6n-12">
          <mxGeometry x="-0.0031" relative="1" as="geometry">
            <mxPoint as="offset" />
          </mxGeometry>
        </mxCell>
        <mxCell id="Xmvf-_v_oDST-VpxMR6n-3" value="«Redux»&lt;br&gt;&lt;b&gt;Reducer&lt;/b&gt;" style="html=1;dropTarget=0;whiteSpace=wrap;fontSize=16;fillColor=#f5f5f5;fontColor=#333333;strokeColor=#666666;" vertex="1" parent="1">
          <mxGeometry x="60" y="250" width="200" height="80" as="geometry" />
        </mxCell>
        <mxCell id="Xmvf-_v_oDST-VpxMR6n-4" value="" style="shape=module;jettyWidth=8;jettyHeight=4;fontSize=16;" vertex="1" parent="Xmvf-_v_oDST-VpxMR6n-3">
          <mxGeometry x="1" width="20" height="20" relative="1" as="geometry">
            <mxPoint x="-27" y="7" as="offset" />
          </mxGeometry>
        </mxCell>
        <mxCell id="Xmvf-_v_oDST-VpxMR6n-9" style="edgeStyle=orthogonalEdgeStyle;shape=connector;rounded=0;orthogonalLoop=1;jettySize=auto;html=1;entryX=0.5;entryY=1;entryDx=0;entryDy=0;labelBackgroundColor=default;strokeColor=default;fontFamily=Helvetica;fontSize=12;fontColor=default;endArrow=classic;startSize=8;endSize=8;" edge="1" parent="1" source="Xmvf-_v_oDST-VpxMR6n-5" target="Xmvf-_v_oDST-VpxMR6n-7">
          <mxGeometry relative="1" as="geometry" />
        </mxCell>
        <mxCell id="Xmvf-_v_oDST-VpxMR6n-10" value="Dispatch" style="edgeLabel;html=1;align=center;verticalAlign=middle;resizable=0;points=[];fontSize=12;fontFamily=Helvetica;fontColor=default;" vertex="1" connectable="0" parent="Xmvf-_v_oDST-VpxMR6n-9">
          <mxGeometry x="0.168" y="3" relative="1" as="geometry">
            <mxPoint x="3" y="9" as="offset" />
          </mxGeometry>
        </mxCell>
        <mxCell id="Xmvf-_v_oDST-VpxMR6n-15" style="edgeStyle=orthogonalEdgeStyle;shape=connector;rounded=0;orthogonalLoop=1;jettySize=auto;html=1;entryX=0.5;entryY=1;entryDx=0;entryDy=0;labelBackgroundColor=default;strokeColor=default;fontFamily=Helvetica;fontSize=12;fontColor=default;endArrow=classic;startSize=8;endSize=8;" edge="1" parent="1" source="Xmvf-_v_oDST-VpxMR6n-5" target="Xmvf-_v_oDST-VpxMR6n-1">
          <mxGeometry relative="1" as="geometry" />
        </mxCell>
        <mxCell id="Xmvf-_v_oDST-VpxMR6n-16" value="subscribes to&lt;br&gt;state changes" style="edgeLabel;html=1;align=center;verticalAlign=middle;resizable=0;points=[];fontSize=12;fontFamily=Helvetica;fontColor=default;" vertex="1" connectable="0" parent="Xmvf-_v_oDST-VpxMR6n-15">
          <mxGeometry x="-0.4233" y="4" relative="1" as="geometry">
            <mxPoint x="1" y="4" as="offset" />
          </mxGeometry>
        </mxCell>
        <mxCell id="Xmvf-_v_oDST-VpxMR6n-5" value="«React»&lt;br&gt;&lt;b&gt;Application&lt;/b&gt;" style="html=1;dropTarget=0;whiteSpace=wrap;fontSize=16;fillColor=#f5f5f5;fontColor=#333333;strokeColor=#666666;" vertex="1" parent="1">
          <mxGeometry x="-510" y="390" width="200" height="80" as="geometry" />
        </mxCell>
        <mxCell id="Xmvf-_v_oDST-VpxMR6n-6" value="" style="shape=module;jettyWidth=8;jettyHeight=4;fontSize=16;" vertex="1" parent="Xmvf-_v_oDST-VpxMR6n-5">
          <mxGeometry x="1" width="20" height="20" relative="1" as="geometry">
            <mxPoint x="-27" y="7" as="offset" />
          </mxGeometry>
        </mxCell>
        <mxCell id="Xmvf-_v_oDST-VpxMR6n-8" style="edgeStyle=orthogonalEdgeStyle;rounded=0;orthogonalLoop=1;jettySize=auto;html=1;entryX=0;entryY=0.5;entryDx=0;entryDy=0;fontSize=12;startSize=8;endSize=8;" edge="1" parent="1" source="Xmvf-_v_oDST-VpxMR6n-7" target="Xmvf-_v_oDST-VpxMR6n-1">
          <mxGeometry relative="1" as="geometry" />
        </mxCell>
        <mxCell id="Xmvf-_v_oDST-VpxMR6n-7" value="Action" style="html=1;whiteSpace=wrap;fontSize=16;" vertex="1" parent="1">
          <mxGeometry x="-470" y="270" width="120" height="40" as="geometry" />
        </mxCell>
        <mxCell id="MHbJl_Ejt_5j4GULo3-K-7" style="edgeStyle=orthogonalEdgeStyle;shape=connector;rounded=0;orthogonalLoop=1;jettySize=auto;html=1;labelBackgroundColor=default;strokeColor=default;fontFamily=Helvetica;fontSize=12;fontColor=default;endArrow=classic;startSize=8;endSize=8;dashed=1;" edge="1" parent="1" source="MHbJl_Ejt_5j4GULo3-K-1" target="MHbJl_Ejt_5j4GULo3-K-3">
          <mxGeometry relative="1" as="geometry">
            <Array as="points">
              <mxPoint x="40" y="-360" />
              <mxPoint x="160" y="-360" />
            </Array>
          </mxGeometry>
        </mxCell>
        <mxCell id="MHbJl_Ejt_5j4GULo3-K-10" style="edgeStyle=orthogonalEdgeStyle;shape=connector;rounded=0;orthogonalLoop=1;jettySize=auto;html=1;labelBackgroundColor=default;strokeColor=default;fontFamily=Helvetica;fontSize=12;fontColor=default;endArrow=classic;startSize=8;endSize=8;dashed=1;" edge="1" parent="1" source="MHbJl_Ejt_5j4GULo3-K-1" target="MHbJl_Ejt_5j4GULo3-K-5">
          <mxGeometry relative="1" as="geometry">
            <Array as="points">
              <mxPoint x="40" y="-360" />
              <mxPoint x="-80" y="-360" />
            </Array>
          </mxGeometry>
        </mxCell>
        <mxCell id="MHbJl_Ejt_5j4GULo3-K-1" value="«Redux»&lt;br&gt;&lt;b&gt;rootReducer&lt;/b&gt;" style="html=1;dropTarget=0;whiteSpace=wrap;fontSize=16;fillColor=#e1d5e7;strokeColor=#9673a6;" vertex="1" parent="1">
          <mxGeometry x="-40" y="-480" width="160" height="80" as="geometry" />
        </mxCell>
        <mxCell id="MHbJl_Ejt_5j4GULo3-K-2" value="" style="shape=module;jettyWidth=8;jettyHeight=4;fontSize=16;" vertex="1" parent="MHbJl_Ejt_5j4GULo3-K-1">
          <mxGeometry x="1" width="20" height="20" relative="1" as="geometry">
            <mxPoint x="-27" y="7" as="offset" />
          </mxGeometry>
        </mxCell>
        <mxCell id="MHbJl_Ejt_5j4GULo3-K-18" style="edgeStyle=orthogonalEdgeStyle;shape=connector;rounded=0;orthogonalLoop=1;jettySize=auto;html=1;labelBackgroundColor=default;strokeColor=default;fontFamily=Helvetica;fontSize=12;fontColor=default;endArrow=classic;startSize=8;endSize=8;" edge="1" parent="1" source="MHbJl_Ejt_5j4GULo3-K-3" target="MHbJl_Ejt_5j4GULo3-K-11">
          <mxGeometry relative="1" as="geometry">
            <Array as="points">
              <mxPoint x="160" y="-160" />
              <mxPoint x="50" y="-160" />
            </Array>
          </mxGeometry>
        </mxCell>
        <mxCell id="MHbJl_Ejt_5j4GULo3-K-3" value="«Redux»&lt;br&gt;&lt;b&gt;dataReducer&lt;/b&gt;" style="html=1;dropTarget=0;whiteSpace=wrap;fontSize=16;fillColor=#e1d5e7;strokeColor=#9673a6;" vertex="1" parent="1">
          <mxGeometry x="80" y="-280" width="160" height="80" as="geometry" />
        </mxCell>
        <mxCell id="MHbJl_Ejt_5j4GULo3-K-4" value="" style="shape=module;jettyWidth=8;jettyHeight=4;fontSize=16;" vertex="1" parent="MHbJl_Ejt_5j4GULo3-K-3">
          <mxGeometry x="1" width="20" height="20" relative="1" as="geometry">
            <mxPoint x="-27" y="7" as="offset" />
          </mxGeometry>
        </mxCell>
        <mxCell id="MHbJl_Ejt_5j4GULo3-K-17" style="edgeStyle=orthogonalEdgeStyle;shape=connector;rounded=0;orthogonalLoop=1;jettySize=auto;html=1;entryX=0.5;entryY=0;entryDx=0;entryDy=0;labelBackgroundColor=default;strokeColor=default;fontFamily=Helvetica;fontSize=12;fontColor=default;endArrow=classic;startSize=8;endSize=8;" edge="1" parent="1" source="MHbJl_Ejt_5j4GULo3-K-5" target="MHbJl_Ejt_5j4GULo3-K-11">
          <mxGeometry relative="1" as="geometry">
            <Array as="points">
              <mxPoint x="-80" y="-160" />
              <mxPoint x="50" y="-160" />
            </Array>
          </mxGeometry>
        </mxCell>
        <mxCell id="MHbJl_Ejt_5j4GULo3-K-19" value="Modify" style="edgeLabel;html=1;align=center;verticalAlign=middle;resizable=0;points=[];fontSize=12;fontFamily=Helvetica;fontColor=default;" vertex="1" connectable="0" parent="MHbJl_Ejt_5j4GULo3-K-17">
          <mxGeometry x="0.616" y="-1" relative="1" as="geometry">
            <mxPoint x="1" y="10" as="offset" />
          </mxGeometry>
        </mxCell>
        <mxCell id="MHbJl_Ejt_5j4GULo3-K-5" value="«Redux»&lt;br&gt;&lt;b&gt;userReducer&lt;/b&gt;" style="html=1;dropTarget=0;whiteSpace=wrap;fontSize=16;fillColor=#e1d5e7;strokeColor=#9673a6;" vertex="1" parent="1">
          <mxGeometry x="-160" y="-280" width="160" height="80" as="geometry" />
        </mxCell>
        <mxCell id="MHbJl_Ejt_5j4GULo3-K-6" value="" style="shape=module;jettyWidth=8;jettyHeight=4;fontSize=16;" vertex="1" parent="MHbJl_Ejt_5j4GULo3-K-5">
          <mxGeometry x="1" width="20" height="20" relative="1" as="geometry">
            <mxPoint x="-27" y="7" as="offset" />
          </mxGeometry>
        </mxCell>
        <mxCell id="MHbJl_Ejt_5j4GULo3-K-15" style="edgeStyle=orthogonalEdgeStyle;shape=connector;rounded=0;orthogonalLoop=1;jettySize=auto;html=1;entryX=0;entryY=0.5;entryDx=0;entryDy=0;labelBackgroundColor=default;strokeColor=default;fontFamily=Helvetica;fontSize=12;fontColor=default;endArrow=classic;startSize=8;endSize=8;dashed=1;exitX=1;exitY=0.5;exitDx=0;exitDy=0;" edge="1" parent="1" source="MHbJl_Ejt_5j4GULo3-K-35" target="MHbJl_Ejt_5j4GULo3-K-13">
          <mxGeometry relative="1" as="geometry">
            <mxPoint x="-80" y="-560" as="sourcePoint" />
            <Array as="points" />
          </mxGeometry>
        </mxCell>
        <mxCell id="MHbJl_Ejt_5j4GULo3-K-11" value="«Redux»&lt;br&gt;&lt;b&gt;State&lt;/b&gt;" style="html=1;dropTarget=0;whiteSpace=wrap;fontSize=16;fillColor=#e1d5e7;strokeColor=#9673a6;" vertex="1" parent="1">
          <mxGeometry x="-30" y="-120" width="160" height="80" as="geometry" />
        </mxCell>
        <mxCell id="MHbJl_Ejt_5j4GULo3-K-12" value="" style="shape=module;jettyWidth=8;jettyHeight=4;fontSize=16;" vertex="1" parent="MHbJl_Ejt_5j4GULo3-K-11">
          <mxGeometry x="1" width="20" height="20" relative="1" as="geometry">
            <mxPoint x="-27" y="7" as="offset" />
          </mxGeometry>
        </mxCell>
        <mxCell id="MHbJl_Ejt_5j4GULo3-K-16" style="edgeStyle=orthogonalEdgeStyle;shape=connector;rounded=0;orthogonalLoop=1;jettySize=auto;html=1;entryX=0.5;entryY=0;entryDx=0;entryDy=0;labelBackgroundColor=default;strokeColor=default;fontFamily=Helvetica;fontSize=12;fontColor=default;endArrow=classic;startSize=8;endSize=8;dashed=1;" edge="1" parent="1" source="MHbJl_Ejt_5j4GULo3-K-13" target="MHbJl_Ejt_5j4GULo3-K-1">
          <mxGeometry relative="1" as="geometry" />
        </mxCell>
        <mxCell id="MHbJl_Ejt_5j4GULo3-K-13" value="«Redux»&lt;br&gt;&lt;b&gt;Middleware&lt;/b&gt;&lt;br&gt;&lt;i&gt;&lt;font style=&quot;font-size: 14px;&quot;&gt;responsible for side effects&lt;/font&gt;&lt;/i&gt;" style="html=1;dropTarget=0;whiteSpace=wrap;fontSize=16;fillColor=#e1d5e7;strokeColor=#9673a6;" vertex="1" parent="1">
          <mxGeometry x="-40" y="-600" width="160" height="80" as="geometry" />
        </mxCell>
        <mxCell id="MHbJl_Ejt_5j4GULo3-K-14" value="" style="shape=module;jettyWidth=8;jettyHeight=4;fontSize=16;" vertex="1" parent="MHbJl_Ejt_5j4GULo3-K-13">
          <mxGeometry x="1" width="20" height="20" relative="1" as="geometry">
            <mxPoint x="-27" y="7" as="offset" />
          </mxGeometry>
        </mxCell>
        <mxCell id="MHbJl_Ejt_5j4GULo3-K-22" style="edgeStyle=orthogonalEdgeStyle;shape=connector;rounded=0;orthogonalLoop=1;jettySize=auto;html=1;entryX=0;entryY=0.5;entryDx=0;entryDy=0;labelBackgroundColor=default;strokeColor=default;fontFamily=Helvetica;fontSize=12;fontColor=default;endArrow=classic;startSize=8;endSize=8;dashed=1;" edge="1" parent="1" source="MHbJl_Ejt_5j4GULo3-K-38" target="MHbJl_Ejt_5j4GULo3-K-35">
          <mxGeometry relative="1" as="geometry">
            <Array as="points">
              <mxPoint x="-540" y="-560" />
            </Array>
          </mxGeometry>
        </mxCell>
        <mxCell id="MHbJl_Ejt_5j4GULo3-K-28" style="edgeStyle=orthogonalEdgeStyle;shape=connector;rounded=0;orthogonalLoop=1;jettySize=auto;html=1;entryX=0;entryY=0.5;entryDx=0;entryDy=0;labelBackgroundColor=default;strokeColor=default;fontFamily=Helvetica;fontSize=12;fontColor=default;endArrow=classic;startSize=8;endSize=8;" edge="1" parent="1" source="MHbJl_Ejt_5j4GULo3-K-20" target="MHbJl_Ejt_5j4GULo3-K-24">
          <mxGeometry relative="1" as="geometry">
            <Array as="points">
              <mxPoint x="-540" y="-80" />
            </Array>
          </mxGeometry>
        </mxCell>
        <mxCell id="MHbJl_Ejt_5j4GULo3-K-31" value="uses hook&lt;br&gt;to get state" style="edgeLabel;html=1;align=center;verticalAlign=middle;resizable=0;points=[];fontSize=12;fontFamily=Helvetica;fontColor=default;" vertex="1" connectable="0" parent="MHbJl_Ejt_5j4GULo3-K-28">
          <mxGeometry x="-0.3046" relative="1" as="geometry">
            <mxPoint as="offset" />
          </mxGeometry>
        </mxCell>
        <mxCell id="MHbJl_Ejt_5j4GULo3-K-20" value="«React»&lt;br&gt;&lt;b&gt;Application&lt;/b&gt;" style="html=1;dropTarget=0;whiteSpace=wrap;fontSize=16;fillColor=#dae8fc;strokeColor=#6c8ebf;" vertex="1" parent="1">
          <mxGeometry x="-640" y="-430" width="200" height="160" as="geometry" />
        </mxCell>
        <mxCell id="MHbJl_Ejt_5j4GULo3-K-21" value="" style="shape=module;jettyWidth=8;jettyHeight=4;fontSize=16;" vertex="1" parent="MHbJl_Ejt_5j4GULo3-K-20">
          <mxGeometry x="1" width="20" height="20" relative="1" as="geometry">
            <mxPoint x="-27" y="7" as="offset" />
          </mxGeometry>
        </mxCell>
        <mxCell id="MHbJl_Ejt_5j4GULo3-K-29" style="edgeStyle=orthogonalEdgeStyle;shape=connector;rounded=0;orthogonalLoop=1;jettySize=auto;html=1;labelBackgroundColor=default;strokeColor=default;fontFamily=Helvetica;fontSize=12;fontColor=default;endArrow=classic;startSize=8;endSize=8;" edge="1" parent="1" source="MHbJl_Ejt_5j4GULo3-K-24" target="MHbJl_Ejt_5j4GULo3-K-11">
          <mxGeometry relative="1" as="geometry" />
        </mxCell>
        <mxCell id="MHbJl_Ejt_5j4GULo3-K-30" value="subscribes to" style="edgeLabel;html=1;align=center;verticalAlign=middle;resizable=0;points=[];fontSize=12;fontFamily=Helvetica;fontColor=default;" vertex="1" connectable="0" parent="MHbJl_Ejt_5j4GULo3-K-29">
          <mxGeometry x="-0.0635" y="1" relative="1" as="geometry">
            <mxPoint as="offset" />
          </mxGeometry>
        </mxCell>
        <mxCell id="MHbJl_Ejt_5j4GULo3-K-24" value="«React-Redux»&lt;br&gt;&lt;b&gt;useSelector&lt;/b&gt;" style="html=1;dropTarget=0;whiteSpace=wrap;fontSize=16;fillColor=#A9C4EB;fontColor=#333333;strokeColor=#666666;gradientColor=#C3ABD0;gradientDirection=east;" vertex="1" parent="1">
          <mxGeometry x="-400" y="-120" width="160" height="80" as="geometry" />
        </mxCell>
        <mxCell id="MHbJl_Ejt_5j4GULo3-K-25" value="" style="shape=module;jettyWidth=8;jettyHeight=4;fontSize=16;" vertex="1" parent="MHbJl_Ejt_5j4GULo3-K-24">
          <mxGeometry x="1" width="20" height="20" relative="1" as="geometry">
            <mxPoint x="-27" y="7" as="offset" />
          </mxGeometry>
        </mxCell>
        <mxCell id="MHbJl_Ejt_5j4GULo3-K-33" value="UserSlice" style="swimlane;whiteSpace=wrap;html=1;fontFamily=Helvetica;fontSize=12;fillColor=#fff2cc;strokeColor=#d6b656;" vertex="1" parent="1">
          <mxGeometry x="-180" y="-320" width="200" height="140" as="geometry" />
        </mxCell>
        <mxCell id="MHbJl_Ejt_5j4GULo3-K-34" value="dataSlice" style="swimlane;whiteSpace=wrap;html=1;fontFamily=Helvetica;fontSize=12;fillColor=#fff2cc;strokeColor=#d6b656;" vertex="1" parent="1">
          <mxGeometry x="60" y="-320" width="200" height="140" as="geometry" />
        </mxCell>
        <mxCell id="MHbJl_Ejt_5j4GULo3-K-35" value="«React-Redux»&lt;br&gt;&lt;b&gt;useDispatch&lt;/b&gt;" style="html=1;dropTarget=0;whiteSpace=wrap;fontSize=16;fillColor=#A9C4EB;fontColor=#333333;strokeColor=#666666;gradientColor=#C3ABD0;gradientDirection=east;" vertex="1" parent="1">
          <mxGeometry x="-400" y="-600" width="160" height="80" as="geometry" />
        </mxCell>
        <mxCell id="MHbJl_Ejt_5j4GULo3-K-36" value="" style="shape=module;jettyWidth=8;jettyHeight=4;fontSize=16;" vertex="1" parent="MHbJl_Ejt_5j4GULo3-K-35">
          <mxGeometry x="1" width="20" height="20" relative="1" as="geometry">
            <mxPoint x="-27" y="7" as="offset" />
          </mxGeometry>
        </mxCell>
        <mxCell id="MHbJl_Ejt_5j4GULo3-K-39" value="" style="edgeStyle=orthogonalEdgeStyle;shape=connector;rounded=0;orthogonalLoop=1;jettySize=auto;html=1;entryX=0.5;entryY=1;entryDx=0;entryDy=0;labelBackgroundColor=default;strokeColor=default;fontFamily=Helvetica;fontSize=12;fontColor=default;endArrow=classic;startSize=8;endSize=8;dashed=1;" edge="1" parent="1" source="MHbJl_Ejt_5j4GULo3-K-20" target="MHbJl_Ejt_5j4GULo3-K-38">
          <mxGeometry relative="1" as="geometry">
            <mxPoint x="-540" y="-430" as="sourcePoint" />
            <mxPoint x="-360" y="-560" as="targetPoint" />
            <Array as="points" />
          </mxGeometry>
        </mxCell>
        <mxCell id="MHbJl_Ejt_5j4GULo3-K-38" value="ACTION" style="rounded=0;whiteSpace=wrap;html=1;fontFamily=Helvetica;fontSize=12;fontStyle=1;fillColor=#e1d5e7;strokeColor=#9673a6;" vertex="1" parent="1">
          <mxGeometry x="-580" y="-520" width="80" height="40" as="geometry" />
        </mxCell>
      </root>
    </mxGraphModel>
  </diagram>
</mxfile>
